<svg xmlns="http://www.w3.org/2000/svg" xmlns:xlink="http://www.w3.org/1999/xlink" width="500" zoomAndPan="magnify" viewBox="0 0 375 374.999991" height="500" preserveAspectRatio="xMidYMid meet" version="1.0"><defs><g/><clipPath id="019f45cb73"><path d="M 62.105469 135.296875 L 107.105469 135.296875 L 107.105469 195 L 62.105469 195 Z M 62.105469 135.296875 " clip-rule="nonzero"/></clipPath><clipPath id="ae70e19d49"><path d="M 62.105469 179 L 107.105469 179 L 107.105469 239.546875 L 62.105469 239.546875 Z M 62.105469 179 " clip-rule="nonzero"/></clipPath><clipPath id="7fba732ab6"><path d="M 62.105469 165 L 107.105469 165 L 107.105469 210 L 62.105469 210 Z M 62.105469 165 " clip-rule="nonzero"/></clipPath></defs><rect x="-37.5" width="450" fill="#ffffff" y="-37.499999" height="449.999989" fill-opacity="1"/><rect x="-37.5" width="450" fill="#ffffff" y="-37.499999" height="449.999989" fill-opacity="1"/><rect x="-37.5" width="450" fill="#ffffff" y="-37.499999" height="449.999989" fill-opacity="1"/><g fill="#000000" fill-opacity="1"><g transform="translate(118.857624, 204.060572)"><g><path d="M 8.066406 0.371094 C 12.386719 0.371094 14.945312 -1.664062 14.945312 -5.089844 C 14.945312 -7.96875 13.082031 -9.65625 8.863281 -10.601562 C 6.628906 -11.097656 5.808594 -11.644531 5.808594 -12.535156 C 5.808594 -13.378906 6.554688 -13.902344 7.71875 -13.902344 C 9.109375 -13.902344 9.90625 -13.183594 9.90625 -11.867188 L 14.621094 -11.867188 C 14.621094 -15.441406 11.890625 -17.75 7.621094 -17.75 C 3.523438 -17.75 0.992188 -15.714844 0.992188 -12.4375 C 0.992188 -9.507812 2.90625 -7.695312 6.828125 -6.949219 C 8.9375 -6.527344 9.953125 -5.882812 9.953125 -4.890625 C 9.953125 -4.023438 9.210938 -3.523438 7.992188 -3.523438 C 6.554688 -3.523438 5.710938 -4.292969 5.710938 -5.636719 L 0.867188 -5.636719 C 0.867188 -1.886719 3.550781 0.371094 8.066406 0.371094 Z M 8.066406 0.371094 "/></g></g></g><g fill="#000000" fill-opacity="1"><g transform="translate(134.717772, 204.060572)"><g><path d="M 6.453125 0 L 11.445312 0 L 11.445312 -6.058594 L 17.773438 -17.378906 L 12.089844 -17.378906 L 8.9375 -11.144531 L 7.597656 -13.777344 L 5.757812 -17.378906 L 0.125 -17.378906 L 6.453125 -6.03125 Z M 6.453125 0 "/></g></g></g><g fill="#000000" fill-opacity="1"><g transform="translate(152.613183, 204.060572)"><g><path d="M 8.066406 0.371094 C 12.386719 0.371094 14.945312 -1.664062 14.945312 -5.089844 C 14.945312 -7.96875 13.082031 -9.65625 8.863281 -10.601562 C 6.628906 -11.097656 5.808594 -11.644531 5.808594 -12.535156 C 5.808594 -13.378906 6.554688 -13.902344 7.71875 -13.902344 C 9.109375 -13.902344 9.90625 -13.183594 9.90625 -11.867188 L 14.621094 -11.867188 C 14.621094 -15.441406 11.890625 -17.75 7.621094 -17.75 C 3.523438 -17.75 0.992188 -15.714844 0.992188 -12.4375 C 0.992188 -9.507812 2.90625 -7.695312 6.828125 -6.949219 C 8.9375 -6.527344 9.953125 -5.882812 9.953125 -4.890625 C 9.953125 -4.023438 9.210938 -3.523438 7.992188 -3.523438 C 6.554688 -3.523438 5.710938 -4.292969 5.710938 -5.636719 L 0.867188 -5.636719 C 0.867188 -1.886719 3.550781 0.371094 8.066406 0.371094 Z M 8.066406 0.371094 "/></g></g></g><g fill="#000000" fill-opacity="1"><g transform="translate(168.473332, 204.060572)"><g><path d="M 5.984375 0 L 10.972656 0 L 10.972656 -12.734375 L 16.261719 -12.734375 L 16.261719 -17.378906 L 0.695312 -17.378906 L 0.695312 -12.734375 L 5.984375 -12.734375 Z M 5.984375 0 "/></g></g></g><g fill="#000000" fill-opacity="1"><g transform="translate(185.425578, 204.060572)"><g><path d="M 1.835938 0 L 14.027344 0 L 14.027344 -4.097656 L 6.800781 -4.097656 L 6.800781 -6.777344 L 13.082031 -6.777344 L 13.082031 -10.800781 L 6.800781 -10.800781 L 6.800781 -13.332031 L 13.753906 -13.332031 L 13.753906 -17.378906 L 1.835938 -17.378906 Z M 1.835938 0 "/></g></g></g><g fill="#000000" fill-opacity="1"><g transform="translate(200.565939, 204.060572)"><g><path d="M 1.835938 0 L 6.800781 0 L 6.800781 -8.8125 L 10.152344 -4.121094 L 13.40625 -4.121094 L 16.730469 -8.789062 L 16.730469 0 L 21.695312 0 L 21.695312 -17.378906 L 17.625 -17.378906 L 11.765625 -9.109375 L 5.933594 -17.378906 L 1.835938 -17.378906 Z M 1.835938 0 "/></g></g></g><g fill="#000000" fill-opacity="1"><g transform="translate(224.095551, 204.060572)"><g/></g></g><g fill="#000000" fill-opacity="1"><g transform="translate(229.829029, 204.060572)"><g><path d="M 5.984375 0 L 10.972656 0 L 10.972656 -12.734375 L 16.261719 -12.734375 L 16.261719 -17.378906 L 0.695312 -17.378906 L 0.695312 -12.734375 L 5.984375 -12.734375 Z M 5.984375 0 "/></g></g></g><g fill="#000000" fill-opacity="1"><g transform="translate(246.781276, 204.060572)"><g><path d="M 1.835938 0 L 14.027344 0 L 14.027344 -4.097656 L 6.800781 -4.097656 L 6.800781 -6.777344 L 13.082031 -6.777344 L 13.082031 -10.800781 L 6.800781 -10.800781 L 6.800781 -13.332031 L 13.753906 -13.332031 L 13.753906 -17.378906 L 1.835938 -17.378906 Z M 1.835938 0 "/></g></g></g><g fill="#000000" fill-opacity="1"><g transform="translate(261.921637, 204.060572)"><g><path d="M 9.953125 0.371094 C 14.746094 0.371094 18.371094 -2.53125 19.117188 -6.949219 L 14.027344 -6.949219 C 13.40625 -5.3125 11.941406 -4.269531 10.054688 -4.269531 C 7.621094 -4.269531 5.933594 -6.082031 5.933594 -8.6875 C 5.933594 -11.320312 7.644531 -13.109375 10.105469 -13.109375 C 11.914062 -13.109375 13.429688 -12.089844 13.953125 -10.527344 L 19.015625 -10.527344 C 18.121094 -14.917969 14.546875 -17.75 9.90625 -17.75 C 4.542969 -17.75 0.84375 -14.050781 0.84375 -8.6875 C 0.84375 -3.328125 4.542969 0.371094 9.953125 0.371094 Z M 9.953125 0.371094 "/></g></g></g><g fill="#000000" fill-opacity="1"><g transform="translate(281.827489, 204.060572)"><g><path d="M 12.214844 0 L 17.230469 0 L 17.230469 -17.378906 L 12.214844 -17.378906 L 12.214844 -11.144531 L 6.851562 -11.144531 L 6.851562 -17.378906 L 1.835938 -17.378906 L 1.835938 0 L 6.851562 0 L 6.851562 -6.527344 L 12.214844 -6.527344 Z M 12.214844 0 "/></g></g></g><g clip-path="url(#019f45cb73)"><path fill="#12229d" d="M 107.101562 135.296875 L 107.101562 165.082031 L 62.109375 194.867188 L 62.109375 165.082031 L 107.101562 135.296875 " fill-opacity="1" fill-rule="nonzero"/></g><g clip-path="url(#ae70e19d49)"><path fill="#3a9bdc" d="M 107.101562 179.976562 L 107.101562 209.761719 L 62.109375 239.546875 L 62.109375 209.761719 L 107.101562 179.976562 " fill-opacity="1" fill-rule="nonzero"/></g><g clip-path="url(#7fba732ab6)"><path fill="#233dff" d="M 62.109375 194.867188 L 107.101562 209.761719 L 107.101562 179.976562 L 62.109375 165.082031 " fill-opacity="1" fill-rule="nonzero"/></g><g fill="#000000" fill-opacity="1"><g transform="translate(150.230364, 221.963349)"><g><path d="M 0.691406 0 L 2.003906 0 L 2.003906 -5.769531 L 0.691406 -5.769531 Z M 0.691406 0 "/></g></g></g><g fill="#000000" fill-opacity="1"><g transform="translate(153.567965, 221.963349)"><g><path d="M 0.691406 0 L 1.996094 0 L 1.996094 -3.535156 L 4.539062 0 L 5.652344 0 L 5.652344 -5.769531 L 4.351562 -5.769531 L 4.351562 -2.257812 L 1.804688 -5.769531 L 0.691406 -5.769531 Z M 0.691406 0 "/></g></g></g><g fill="#000000" fill-opacity="1"><g transform="translate(160.556333, 221.963349)"><g><path d="M 0.691406 0 L 1.996094 0 L 1.996094 -3.535156 L 4.539062 0 L 5.652344 0 L 5.652344 -5.769531 L 4.351562 -5.769531 L 4.351562 -2.257812 L 1.804688 -5.769531 L 0.691406 -5.769531 Z M 0.691406 0 "/></g></g></g><g fill="#000000" fill-opacity="1"><g transform="translate(167.544699, 221.963349)"><g><path d="M 3.429688 0.117188 C 5.234375 0.117188 6.511719 -1.121094 6.511719 -2.882812 C 6.511719 -4.648438 5.234375 -5.882812 3.429688 -5.882812 C 1.625 -5.882812 0.355469 -4.648438 0.355469 -2.882812 C 0.355469 -1.121094 1.625 0.117188 3.429688 0.117188 Z M 1.6875 -2.882812 C 1.6875 -3.921875 2.40625 -4.640625 3.429688 -4.640625 C 4.457031 -4.640625 5.167969 -3.921875 5.167969 -2.882812 C 5.167969 -1.847656 4.457031 -1.128906 3.429688 -1.128906 C 2.40625 -1.128906 1.6875 -1.847656 1.6875 -2.882812 Z M 1.6875 -2.882812 "/></g></g></g><g fill="#000000" fill-opacity="1"><g transform="translate(175.052245, 221.963349)"><g><path d="M 2.289062 0 L 3.578125 0 L 5.792969 -5.769531 L 4.390625 -5.769531 L 2.941406 -1.886719 L 2.25 -3.714844 L 1.484375 -5.769531 L 0.0742188 -5.769531 Z M 2.289062 0 "/></g></g></g><g fill="#000000" fill-opacity="1"><g transform="translate(181.562639, 221.963349)"><g><path d="M 0.0742188 0 L 1.476562 0 L 1.863281 -0.996094 L 4.152344 -0.996094 L 4.539062 0 L 5.941406 0 L 3.652344 -5.769531 L 2.363281 -5.769531 Z M 2.199219 -2.027344 L 3.007812 -4.136719 L 3.824219 -2.027344 Z M 2.199219 -2.027344 "/></g></g></g><g fill="#000000" fill-opacity="1"><g transform="translate(188.221362, 221.963349)"><g><path d="M 2.078125 0 L 3.386719 0 L 3.386719 -4.539062 L 5.214844 -4.539062 L 5.214844 -5.769531 L 0.246094 -5.769531 L 0.246094 -4.539062 L 2.078125 -4.539062 Z M 2.078125 0 "/></g></g></g><g fill="#000000" fill-opacity="1"><g transform="translate(194.327941, 221.963349)"><g><path d="M 0.691406 0 L 2.003906 0 L 2.003906 -5.769531 L 0.691406 -5.769531 Z M 0.691406 0 "/></g></g></g><g fill="#000000" fill-opacity="1"><g transform="translate(197.66554, 221.963349)"><g><path d="M 3.429688 0.117188 C 5.234375 0.117188 6.511719 -1.121094 6.511719 -2.882812 C 6.511719 -4.648438 5.234375 -5.882812 3.429688 -5.882812 C 1.625 -5.882812 0.355469 -4.648438 0.355469 -2.882812 C 0.355469 -1.121094 1.625 0.117188 3.429688 0.117188 Z M 1.6875 -2.882812 C 1.6875 -3.921875 2.40625 -4.640625 3.429688 -4.640625 C 4.457031 -4.640625 5.167969 -3.921875 5.167969 -2.882812 C 5.167969 -1.847656 4.457031 -1.128906 3.429688 -1.128906 C 2.40625 -1.128906 1.6875 -1.847656 1.6875 -2.882812 Z M 1.6875 -2.882812 "/></g></g></g><g fill="#000000" fill-opacity="1"><g transform="translate(205.173083, 221.963349)"><g><path d="M 0.691406 0 L 1.996094 0 L 1.996094 -3.535156 L 4.539062 0 L 5.652344 0 L 5.652344 -5.769531 L 4.351562 -5.769531 L 4.351562 -2.257812 L 1.804688 -5.769531 L 0.691406 -5.769531 Z M 0.691406 0 "/></g></g></g><g fill="#000000" fill-opacity="1"><g transform="translate(212.161449, 221.963349)"><g/></g></g><g fill="#000000" fill-opacity="1"><g transform="translate(214.740878, 221.963349)"><g><path d="M 2.703125 0.117188 C 4.070312 0.117188 4.910156 -0.535156 4.910156 -1.625 C 4.910156 -2.539062 4.308594 -3.082031 2.875 -3.421875 C 1.996094 -3.625 1.6875 -3.847656 1.6875 -4.203125 C 1.6875 -4.582031 2.027344 -4.8125 2.578125 -4.8125 C 3.179688 -4.8125 3.542969 -4.5 3.542969 -3.980469 L 4.804688 -3.980469 C 4.804688 -5.140625 3.929688 -5.882812 2.5625 -5.882812 C 1.234375 -5.882812 0.410156 -5.234375 0.410156 -4.179688 C 0.410156 -3.238281 1.046875 -2.679688 2.398438 -2.390625 C 3.214844 -2.21875 3.585938 -1.976562 3.585938 -1.574219 C 3.585938 -1.1875 3.238281 -0.964844 2.695312 -0.964844 C 2.058594 -0.964844 1.648438 -1.285156 1.648438 -1.835938 L 0.363281 -1.835938 C 0.363281 -0.644531 1.253906 0.117188 2.703125 0.117188 Z M 2.703125 0.117188 "/></g></g></g><g fill="#000000" fill-opacity="1"><g transform="translate(220.666149, 221.963349)"><g><path d="M 3.429688 0.117188 C 5.234375 0.117188 6.511719 -1.121094 6.511719 -2.882812 C 6.511719 -4.648438 5.234375 -5.882812 3.429688 -5.882812 C 1.625 -5.882812 0.355469 -4.648438 0.355469 -2.882812 C 0.355469 -1.121094 1.625 0.117188 3.429688 0.117188 Z M 1.6875 -2.882812 C 1.6875 -3.921875 2.40625 -4.640625 3.429688 -4.640625 C 4.457031 -4.640625 5.167969 -3.921875 5.167969 -2.882812 C 5.167969 -1.847656 4.457031 -1.128906 3.429688 -1.128906 C 2.40625 -1.128906 1.6875 -1.847656 1.6875 -2.882812 Z M 1.6875 -2.882812 "/></g></g></g><g fill="#000000" fill-opacity="1"><g transform="translate(228.173692, 221.963349)"><g><path d="M 0.691406 0 L 4.523438 0 L 4.523438 -1.226562 L 2.003906 -1.226562 L 2.003906 -5.769531 L 0.691406 -5.769531 Z M 0.691406 0 "/></g></g></g><g fill="#000000" fill-opacity="1"><g transform="translate(233.563301, 221.963349)"><g><path d="M 3.050781 0.117188 C 4.550781 0.117188 5.464844 -0.824219 5.464844 -2.375 L 5.464844 -5.769531 L 4.152344 -5.769531 L 4.152344 -2.464844 C 4.152344 -1.582031 3.78125 -1.128906 3.050781 -1.128906 C 2.316406 -1.128906 1.945312 -1.582031 1.945312 -2.464844 L 1.945312 -5.769531 L 0.632812 -5.769531 L 0.632812 -2.375 C 0.632812 -0.824219 1.550781 0.117188 3.050781 0.117188 Z M 3.050781 0.117188 "/></g></g></g><g fill="#000000" fill-opacity="1"><g transform="translate(240.304438, 221.963349)"><g><path d="M 2.078125 0 L 3.386719 0 L 3.386719 -4.539062 L 5.214844 -4.539062 L 5.214844 -5.769531 L 0.246094 -5.769531 L 0.246094 -4.539062 L 2.078125 -4.539062 Z M 2.078125 0 "/></g></g></g><g fill="#000000" fill-opacity="1"><g transform="translate(246.41102, 221.963349)"><g><path d="M 0.691406 0 L 2.003906 0 L 2.003906 -5.769531 L 0.691406 -5.769531 Z M 0.691406 0 "/></g></g></g><g fill="#000000" fill-opacity="1"><g transform="translate(249.748624, 221.963349)"><g><path d="M 3.429688 0.117188 C 5.234375 0.117188 6.511719 -1.121094 6.511719 -2.882812 C 6.511719 -4.648438 5.234375 -5.882812 3.429688 -5.882812 C 1.625 -5.882812 0.355469 -4.648438 0.355469 -2.882812 C 0.355469 -1.121094 1.625 0.117188 3.429688 0.117188 Z M 1.6875 -2.882812 C 1.6875 -3.921875 2.40625 -4.640625 3.429688 -4.640625 C 4.457031 -4.640625 5.167969 -3.921875 5.167969 -2.882812 C 5.167969 -1.847656 4.457031 -1.128906 3.429688 -1.128906 C 2.40625 -1.128906 1.6875 -1.847656 1.6875 -2.882812 Z M 1.6875 -2.882812 "/></g></g></g><g fill="#000000" fill-opacity="1"><g transform="translate(257.256172, 221.963349)"><g><path d="M 0.691406 0 L 1.996094 0 L 1.996094 -3.535156 L 4.539062 0 L 5.652344 0 L 5.652344 -5.769531 L 4.351562 -5.769531 L 4.351562 -2.257812 L 1.804688 -5.769531 L 0.691406 -5.769531 Z M 0.691406 0 "/></g></g></g><g fill="#000000" fill-opacity="1"><g transform="translate(264.244543, 221.963349)"><g><path d="M 2.703125 0.117188 C 4.070312 0.117188 4.910156 -0.535156 4.910156 -1.625 C 4.910156 -2.539062 4.308594 -3.082031 2.875 -3.421875 C 1.996094 -3.625 1.6875 -3.847656 1.6875 -4.203125 C 1.6875 -4.582031 2.027344 -4.8125 2.578125 -4.8125 C 3.179688 -4.8125 3.542969 -4.5 3.542969 -3.980469 L 4.804688 -3.980469 C 4.804688 -5.140625 3.929688 -5.882812 2.5625 -5.882812 C 1.234375 -5.882812 0.410156 -5.234375 0.410156 -4.179688 C 0.410156 -3.238281 1.046875 -2.679688 2.398438 -2.390625 C 3.214844 -2.21875 3.585938 -1.976562 3.585938 -1.574219 C 3.585938 -1.1875 3.238281 -0.964844 2.695312 -0.964844 C 2.058594 -0.964844 1.648438 -1.285156 1.648438 -1.835938 L 0.363281 -1.835938 C 0.363281 -0.644531 1.253906 0.117188 2.703125 0.117188 Z M 2.703125 0.117188 "/></g></g></g></svg>